/* XPM */
static char *XPM_icon[] = {
"17 16 2 1",
"  c None",
". c #c5c8c6",
"                 ",
"                 ",
"                 ",
"      .     .    ",
"     ..   .  .   ",
"    ... .  .  .  ",
"  .....  .  . .  ",
"  .....  .  . .  ",
"  .....  .  . .  ",
"  .....  .  . .  ",
"    ... .  .  .  ",
"     ..   .  .   ",
"      .     .    ",
"                 ",
"                 ",
"                 ",
};
