/* XPM */
static char * 1_xpm[] = {
"16 16 3 1",
"  c None",
". c #c5c8c6",
"+ c #b8cc52",
"                ",
"                ",
"    . .  . .    ",
"     ......     ",
"  . ..    .. .  ",
"   ..      ..   ",
"  ..        .   ",
"   .        ..  ",
"   .        .   ",
"  ..        ..  ",
"   ..      ..   ",
"  . ..++++.. .  ",
"     ......     ",
"    . .  . .    ",
"                ",
"                ",
};
