/* XPM */
static char *_15b57d728604fd4d4ac6eed1c3437d6qwGe7LiI8tZogZvq[] = {
/* columns rows colors chars-per-pixel */
"8 12 81 1 ",
"  c gray71",
". c #272727",
"X c #BCBCBC",
"o c white",
"O c #F4F4F4",
"+ c gray",
"@ c #D8D8D8",
"# c #F9F9F9",
"$ c #767676",
"% c gray27",
"& c gray92",
"* c #FEFEFE",
"= c gray81",
"- c gray78",
"; c #F9F9F9",
": c #E9E9E9",
"> c #414141",
", c gray48",
"< c gray88",
"1 c #BCBCBC",
"2 c #EFEFEF",
"3 c gray76",
"4 c #282828",
"5 c gray52",
"6 c #E1E1E1",
"7 c white",
"8 c #E1E1E1",
"9 c gray15",
"0 c gray17",
"q c gray88",
"w c #F9F9F9",
"e c #6A6A6A",
"r c gray26",
"t c gray27",
"y c #6A6A6A",
"u c #F9F9F9",
"i c gray65",
"p c #282828",
"a c gray80",
"s c #D0D0D0",
"d c gray17",
"f c gray65",
"g c #CFD0D0",
"h c #2F2F2F",
"j c #929393",
"k c white",
"l c white",
"z c #979797",
"x c #313131",
"c c #D0D0D0",
"v c #666160",
"b c #636566",
"n c #F3EEEE",
"m c #FFFEFE",
"M c #F5F6F6",
"N c #676A6A",
"B c #6B6D6D",
"V c #DC807C",
"C c #EFBCBA",
"Z c #FCC9C7",
"A c #F9A9A5",
"S c #FDE0DE",
"D c #FDDDDB",
"F c #EFA6A4",
"G c #DF9895",
"H c #FED7D5",
"J c #F77E78",
"K c #FAB7B4",
"L c #FAB5B2",
"P c #F67D77",
"I c #FBC8C5",
"U c #FAA6A3",
"Y c #FAA8A4",
"T c #F78E89",
"R c #FBBFBC",
"E c #FBC0BE",
"W c #F89C97",
"Q c #FCDAD8",
"! c #FCD6D4",
"~ c #F9A4A1",
"^ c #F9A5A1",
/* pixels */
" .XooO+@",
"#$%&*=-;",
"o:>,<12o",
"oo34567o",
"oo890qoo",
"owertyuo",
"oipasdfo",
"ghjklzxc",
"vbnmoMNB",
"VCZASDFG",
"HJKLPIUY",
"TREWQ!~^"
};
