/* XPM */
static char * low_xpm[] = {
"17 16 2 1",
" 	c None",
".	c #151a1e",
"                 ",
"                 ",
"                 ",
"      .          ",
"     ..          ",
"    ... .        ",
"  .....  .       ",
"  .....  .       ",
"  .....  .       ",
"  .....  .       ",
"    ... .        ",
"     ..          ",
"      .          ",
"                 ",
"                 ",
"                 "};
