/* XPM */
static char * mute_xpm[] = {
"17 16 2 1",
" 	c None",
".	c #151a1e",
"                 ",
"                 ",
"                 ",
"      .          ",
"     ..          ",
"    ...          ",
"  ..... .  .     ",
"  .....  ..      ",
"  .....  ..      ",
"  ..... .  .     ",
"    ...          ",
"     ..          ",
"      .          ",
"                 ",
"                 ",
"                 "};
